<?xml version="1.0" standalone="no"?>
<!DOCTYPE svg PUBLIC "-//W3C//DTD SVG 20010904//EN"
 "http://www.w3.org/TR/2001/REC-SVG-20010904/DTD/svg10.dtd">
<svg version="1.0" xmlns="http://www.w3.org/2000/svg"
 width="199.000000pt" height="199.000000pt" viewBox="0 0 199.000000 199.000000"
 preserveAspectRatio="xMidYMid meet">
<metadata>
Created by potrace 1.11, written by Peter Selinger 2001-2013
</metadata>
<g transform="translate(0.000000,199.000000) scale(0.100000,-0.100000)"
fill="#000000" stroke="none">
<path d="M696 1880 c-9 -22 -16 -52 -16 -66 0 -24 -2 -25 -17 -13 -15 13 -16
11 -10 -21 4 -19 9 -59 13 -89 6 -49 5 -54 -10 -48 -10 4 -21 7 -26 7 -5 0
-20 26 -35 57 -28 61 -63 106 -76 97 -4 -2 -1 -21 7 -40 17 -41 12 -53 -13
-33 -15 12 -16 12 -8 -1 4 -8 21 -31 37 -52 55 -71 70 -145 20 -106 -15 12
-16 11 -1 -12 8 -14 19 -31 23 -39 11 -18 26 4 26 39 1 22 2 23 11 7 7 -13 7
-22 0 -31 -6 -8 -9 -21 -5 -30 12 -31 -28 -16 -80 31 -64 58 -122 85 -167 77
-56 -9 -106 -35 -117 -59 -12 -27 -5 -40 15 -24 12 11 63 14 126 9 22 -2 27
-6 22 -19 -4 -9 -12 -28 -17 -43 -8 -23 -16 -28 -44 -28 -63 0 -133 -47 -162
-110 -9 -19 -31 -53 -49 -76 -51 -64 -39 -64 20 -1 51 55 79 69 92 47 4 -6
-11 -30 -33 -54 -48 -52 -72 -96 -72 -131 0 -36 17 -31 31 10 7 19 17 35 22
35 4 0 6 -4 2 -10 -3 -5 -8 -48 -11 -96 -5 -80 -4 -87 10 -75 9 8 16 20 16 28
0 14 87 113 99 113 7 0 -4 -173 -14 -217 -12 -54 10 -38 29 19 9 28 34 76 56
104 43 58 48 69 25 60 -20 -7 -19 3 2 26 9 10 11 18 5 18 -6 0 -22 -15 -36
-32 -14 -18 -26 -27 -26 -19 0 8 11 28 24 45 13 18 26 40 28 51 2 11 11 19 19
17 9 -1 26 9 39 23 13 14 28 25 34 25 5 0 -2 -12 -17 -27 -33 -35 -49 -101
-35 -149 11 -43 17 -40 29 17 6 24 26 63 46 87 48 58 62 44 34 -35 -16 -45
-21 -83 -21 -156 0 -53 4 -98 9 -101 10 -7 21 27 21 70 0 40 39 165 50 159 22
-13 30 -386 11 -533 -6 -47 -6 -99 1 -145 6 -40 8 -107 4 -149 l-5 -78 49 0
c62 0 66 1 63 20 -6 35 -3 773 3 795 10 42 24 28 24 -24 0 -28 4 -53 10 -56
18 -11 22 46 10 141 -6 53 -9 98 -6 101 12 12 36 -22 61 -88 15 -38 31 -71 36
-75 20 -12 7 28 -36 110 -50 97 -50 96 -33 96 12 0 73 -68 101 -113 10 -16 21
-27 24 -23 3 3 1 12 -5 19 -7 7 -19 31 -28 53 l-16 39 23 -20 c13 -11 34 -31
46 -45 20 -21 22 -22 17 -5 -4 14 6 8 31 -18 58 -60 52 -36 -6 27 -29 32 -58
68 -65 81 -11 22 -11 25 6 25 10 0 20 -4 22 -8 2 -4 23 -23 47 -42 24 -19 55
-45 69 -57 14 -13 31 -23 38 -23 24 0 15 -15 -21 -34 -19 -11 -40 -25 -46 -33
-9 -10 -4 -9 17 2 16 8 36 15 44 14 8 0 -1 -9 -21 -19 -20 -11 -39 -25 -42
-33 -4 -10 4 -9 31 5 44 22 78 23 86 3 3 -8 10 -15 16 -15 8 0 8 6 0 20 -9 16
-8 20 5 20 8 0 15 5 15 10 0 6 4 10 9 10 7 0 8 -18 2 -53 0 -4 -20 -16 -43
-26 -63 -27 -197 -135 -184 -148 4 -4 22 9 41 27 32 31 35 32 35 12 0 -12 -13
-44 -30 -70 -16 -27 -30 -53 -30 -58 0 -5 5 -1 11 8 5 9 16 15 23 12 8 -3 18
7 25 24 14 34 68 89 78 79 3 -4 0 -15 -8 -24 -19 -24 -51 -94 -45 -100 2 -3
16 12 29 34 22 34 126 133 141 133 13 0 5 -20 -20 -49 -27 -33 -14 -43 18 -14
26 23 34 9 13 -24 -9 -15 4 -5 30 22 34 37 45 44 42 28 -3 -15 -1 -20 9 -16
12 4 13 -10 8 -83 -4 -64 -3 -85 5 -74 6 8 11 25 11 38 0 14 4 20 10 17 7 -4
10 -69 10 -178 0 -95 -1 -218 0 -274 l0 -103 34 0 33 0 6 98 c2 53 0 140 -5
192 -10 96 -2 320 11 320 10 0 30 -59 37 -114 4 -26 10 -42 14 -36 8 13 3 137
-7 160 -12 28 -14 60 -4 60 15 0 61 -71 61 -93 0 -10 5 -15 10 -12 13 8 13 61
0 86 -20 36 15 20 43 -21 21 -30 22 -47 2 -30 -12 10 -15 9 -15 -7 0 -10 7
-29 17 -42 9 -13 26 -44 38 -69 l22 -45 -5 89 -5 89 23 -20 c13 -11 31 -33 41
-50 l19 -30 0 54 c0 46 2 52 15 41 12 -10 15 -9 15 6 0 22 -46 94 -60 94 -6 0
-10 7 -10 15 0 19 20 19 47 0 l22 -16 -21 41 c-33 61 -115 101 -156 77 -6 -5
-12 -4 -12 2 0 6 5 11 11 11 7 0 9 10 5 24 -5 21 -2 25 24 31 17 4 43 4 60 0
24 -5 29 -4 24 8 -7 19 -52 38 -91 39 -33 1 -87 -28 -118 -62 -10 -11 -25 -20
-34 -20 -14 1 -14 2 2 14 19 15 22 33 7 38 -6 2 4 25 21 53 18 29 27 51 20 53
-8 3 -8 9 0 24 6 11 8 23 4 26 -8 9 -43 -36 -51 -66 -4 -12 -15 -27 -26 -33
-20 -11 -20 -9 -16 45 3 31 1 56 -4 56 -4 0 -8 8 -8 18 -1 9 -7 28 -15 42 -13
24 -14 24 -21 -27 -3 -29 -10 -53 -15 -53 -5 0 -9 5 -9 11 0 5 -4 8 -9 5 -4
-3 -6 -18 -3 -33 4 -22 -5 -14 -38 35 -41 61 -73 77 -47 24 8 -15 12 -35 10
-44 -3 -11 1 -18 9 -18 8 0 14 -9 14 -20 0 -16 -10 -10 -51 30 -51 51 -88 71
-45 25 16 -17 19 -25 9 -24 -17 1 -58 17 -45 18 34 3 -99 91 -138 91 -14 1
-26 12 -37 35 l-16 33 34 7 c18 3 41 2 50 -3 10 -5 37 -12 61 -15 24 -3 61
-17 83 -31 21 -15 39 -23 39 -18 0 16 -65 71 -92 77 -16 4 -28 11 -28 16 0 15
24 10 73 -15 59 -29 61 -16 4 21 -91 62 -105 65 -194 56 -48 -5 -87 -5 -92 0
-5 5 -24 4 -45 -1 -59 -17 -46 11 50 105 66 65 96 86 130 95 24 7 44 15 44 19
0 18 -58 20 -112 4 -19 -6 -17 -1 17 34 25 27 34 41 24 41 -9 0 -55 -39 -102
-86 -77 -77 -85 -83 -75 -53 6 19 12 39 14 46 2 6 12 9 24 6 19 -5 20 -3 9 19
-9 20 -8 32 5 56 18 34 21 62 7 62 -16 0 -81 -88 -112 -152 -33 -67 -33 -67
-12 45 3 15 1 27 -4 27 -6 0 -16 -12 -23 -27 -13 -27 -14 -24 -27 56 -7 47
-15 86 -17 88 -2 2 -11 -14 -20 -37z m392 -359 c10 -6 8 -10 -8 -14 -26 -7
-52 1 -44 14 7 11 35 11 52 0z m-221 -27 c-3 -3 -12 -4 -19 -1 -8 3 -5 6 6 6
11 1 17 -2 13 -5z m33 -4 c0 -5 -2 -10 -4 -10 -3 0 -8 5 -11 10 -3 6 -1 10 4
10 6 0 11 -4 11 -10z m120 -20 c0 -5 -9 -10 -21 -10 -11 0 -17 5 -14 10 3 6
13 10 21 10 8 0 14 -4 14 -10z m-585 -11 c10 -15 -1 -23 -20 -15 -9 3 -13 10
-10 16 8 13 22 13 30 -1z m-8 -43 c11 -11 -4 -17 -47 -21 -40 -4 -80 -27 -80
-48 0 -5 7 -7 15 -4 28 12 25 -12 -4 -28 -40 -20 -41 -20 -34 18 12 63 53 97
111 92 18 -2 36 -6 39 -9z m676 -98 c51 -36 57 -44 44 -57 -8 -8 -7 -11 5 -11
9 0 20 -4 23 -10 3 -5 1 -10 -6 -10 -6 0 -35 25 -64 55 -55 57 -56 71 -2 33z
m-83 -20 c11 -18 20 -42 19 -53 l0 -20 -9 20 c-4 11 -20 30 -34 42 -29 26 -34
43 -11 43 8 0 24 -15 35 -32z m-620 -58 c0 -5 -8 -11 -17 -14 -10 -4 -28 -21
-39 -39 -12 -17 -37 -41 -55 -51 l-34 -20 35 44 c19 24 29 41 23 37 -9 -6 -11
-3 -7 8 8 19 41 38 54 30 6 -4 13 1 16 9 6 16 24 13 24 -4z m871 -69 c27 -26
49 -53 49 -58 0 -6 -26 -9 -64 -6 -37 2 -67 -1 -71 -7 -13 -21 -34 -9 -45 25
-6 19 -18 39 -27 43 -8 5 -13 18 -11 28 3 16 11 12 52 -28 48 -47 86 -62 86
-34 0 8 -9 21 -21 29 -12 9 -16 18 -10 21 5 4 8 13 4 21 -9 26 7 16 58 -34z
m-684 -33 c-3 -7 -5 -2 -5 12 0 14 2 19 5 13 2 -7 2 -19 0 -25z m1076 -110
c28 -15 46 -38 47 -60 0 -20 -8 -22 -30 -8 -12 8 -12 12 -2 18 17 11 -8 34
-41 37 -41 4 -42 5 -27 15 20 13 27 12 53 -2z m-523 -87 c-12 -23 -29 -35 -37
-27 -7 7 26 46 39 46 5 0 4 -9 -2 -19z m90 15 c0 -2 -12 -11 -26 -21 -25 -16
-25 -16 -14 4 9 17 40 30 40 17z m410 -46 c0 -5 8 -10 18 -10 10 0 25 -16 35
-37 18 -35 18 -36 0 -22 -22 17 -73 70 -73 75 0 2 5 4 10 4 6 0 10 -4 10 -10z"/>
<path d="M360 1740 c8 -5 20 -10 25 -10 6 0 3 5 -5 10 -8 5 -19 10 -25 10 -5
0 -3 -5 5 -10z"/>
<path d="M1300 799 c-6 -11 -10 -25 -7 -32 2 -6 9 3 15 21 12 36 8 42 -8 11z"/>
</g>
</svg>
